<svg id="Logo" xmlns="http://www.w3.org/2000/svg" viewBox="0 0 1023.99 1023.99"><title>5-layer</title><g id="_5-layer_expansion" data-name="5-layer expansion"><rect x="159.84" y="587.62" width="14.94" height="184.06" rx="7.47" ry="7.47"/><rect x="159.84" y="540.41" width="14.94" height="33.47" rx="7.47" ry="7.47"/><rect x="189.72" y="656.04" width="14.94" height="148.32" rx="7.47" ry="7.47"/><path d="M204.66,568.49V633a7.47,7.47,0,0,1-14.94,0V568.49a7.47,7.47,0,1,1,14.94,0Z"/><path d="M204.66,528.75v11.65a7.47,7.47,0,0,1-14.94,0V528.75a7.47,7.47,0,1,1,14.94,0Z"/><path d="M234.54,595.09V827.79a7.47,7.47,0,0,1-14.94,0V595.09a7.47,7.47,0,0,1,14.94,0Z"/><path d="M264.42,624.07V738.38a7.47,7.47,0,1,1-14.94,0V624.07a7.47,7.47,0,0,1,14.94,0Z"/><path d="M264.42,513.22v75a7.47,7.47,0,1,1-14.94,0v-75a7.47,7.47,0,1,1,14.94,0Z"/><path d="M294.3,593.59V768.41a7.47,7.47,0,0,1-14.94,0V593.59a7.47,7.47,0,1,1,14.94,0Z"/><path d="M294.3,528.75v33.86a7.47,7.47,0,0,1-14.94,0V528.75a7.47,7.47,0,1,1,14.94,0Z"/><path d="M625.48,235H616L549.86,424.69a7.47,7.47,0,1,1-14.11-4.92L605.38,220h10.67a32.93,32.93,0,0,1,11.76,2.19c3.42,1.35,6,3.22,7.06,5.28h0a4,4,0,0,1-1.23,5.28C631.94,234.11,629.13,235,625.48,235Z"/><path d="M705.69,235H676.47a23.61,23.61,0,0,1-10-2.19c-2.83-1.35-5-3.22-5.64-5.28s.37-3.92,2.65-5.28a20.15,20.15,0,0,1,9.93-2.19h32.27a7.47,7.47,0,0,1,0,14.94Z"/><path d="M611.21,339.44l-33.14,95.08A7.47,7.47,0,1,1,564,429.6l33.14-95.08a7.47,7.47,0,0,1,14.11,4.92Z"/><path d="M679.79,264.83H637.22l-14.31,41.06a10.51,10.51,0,0,1-4.28,5.62,6,6,0,0,1-5.77.52h0c-1.86-.89-3.15-2.88-3.68-5.46a17,17,0,0,1,.74-8.78l16.7-47.9h49.67a17.09,17.09,0,0,1,8.55,2.19c2.28,1.35,3.75,3.22,4,5.28h0a5.91,5.91,0,0,1-2.34,5.28A10.42,10.42,0,0,1,679.79,264.83Z"/><path d="M724.81,264.83H713.16a7.49,7.49,0,0,1-7.47-7.47h0a7.49,7.49,0,0,1,7.47-7.47h11.65a7.4,7.4,0,0,1,2.9.59,7.48,7.48,0,0,1,1.27.69q.3.2.58.43l.14.12.2.12.4.25a6.1,6.1,0,0,1,3.14,5.28h0a7.11,7.11,0,0,1-3.2,5.28c-.52.34-.85.64-1.25.91a7.48,7.48,0,0,1-1.27.69A7.4,7.4,0,0,1,724.81,264.83Z"/><path d="M663.19,294.71h-4.74L591,488.09a7.47,7.47,0,0,1-14.11-4.92l70.9-203.4h5.93a14.11,14.11,0,0,1,7.07,2.19,13.92,13.92,0,0,1,5.11,5.28h0a6.7,6.7,0,0,1,.72,5.28A3.38,3.38,0,0,1,663.19,294.71Z"/><path d="M676.22,334.51,648.5,414a7.47,7.47,0,0,1-14.11-4.92l29.48-84.58a2.49,2.49,0,0,1,2.91-1.69,9.06,9.06,0,0,1,4.62,2.76,22.14,22.14,0,0,1,3.82,5.07C676.1,332.29,676.51,333.66,676.22,334.51Z"/><path d="M734.43,324.59H685.1c-.91,0-2.2-.84-3.68-2.19a28.25,28.25,0,0,1-4.42-5.28h0a10.28,10.28,0,0,1-2-5.28,2,2,0,0,1,2.18-2.19h59.59a3.19,3.19,0,0,1,3,2.19,8.58,8.58,0,0,1,0,5.28h0a17.15,17.15,0,0,1-2.47,5.28C736.32,323.75,735.33,324.59,734.43,324.59Z"/><path d="M700.9,354.47,662.45,464.78a7.49,7.49,0,0,1-9.51,4.6h0a7.49,7.49,0,0,1-4.6-9.51l41.94-120.33h1.52c.46,0,1.37.84,2.34,2.19a38.82,38.82,0,0,1,3,5.28h0l2.55,5.28C700.41,353.63,700.9,354.47,700.9,354.47Z"/><path d="M724.81,354.47H700.9s-.14-.84-.5-2.19L699,347h0a26.36,26.36,0,0,1-1-5.28c-.06-1.35.21-2.19.68-2.19h26.12a7.4,7.4,0,0,1,2.9.59,7.48,7.48,0,0,1,1.27.69q.3.2.58.43l.14.12,0,.12,0,.25A25.23,25.23,0,0,1,730,347h0l-.27,5.28v.37l-.14.12q-.28.23-.58.43a7.48,7.48,0,0,1-1.27.69A7.4,7.4,0,0,1,724.81,354.47Z"/><path d="M524.14,498.47,511.77,534c0,.05,0,.07-.06,0l0-.07-.08-.2a7.93,7.93,0,0,1-.3-1.31,13.59,13.59,0,0,1-.14-2.22l0-2.93c0-4.27,0-9.88.08-15.92l.24-15.46.07-6.53s.72.5,1.91,1.17l4.68,2.59h0a27.91,27.91,0,0,1,4.52,3.05C523.71,497.15,524.29,498,524.14,498.47Z"/><path d="M538.46,457.41l-6.1,17.49A7.47,7.47,0,1,1,518.26,470l6.1-17.49a7.47,7.47,0,1,1,14.11,4.92Z"/><path d="M534.42,559.75l-22.09,63.39a1.59,1.59,0,0,1-.17.36l-.08.09a1.91,1.91,0,0,1-.24-.19,4.73,4.73,0,0,1-.92-1.31l-.21-.45-.1-.24,0-.35-.12-1.5c-.08-1-.15-2.19-.21-3.4-.24-4.84-.33-10.8-.24-16.84h0c.08-6,.31-11.12.55-14.54.06-.85.13-1.6.19-2.23l.1-.86,0-.19.08-.24.15-.45a5.51,5.51,0,0,1,.63-1.31c.05-.08.11-.14.16-.2l.05-.3a3.41,3.41,0,0,1,.11-.44l14.73-42.26c.3-.86,1-.34,2,1.07A35.45,35.45,0,0,1,532,544.1h0a47.4,47.4,0,0,1,2.43,9C534.85,556,534.87,558.45,534.42,559.75Z"/><path d="M556,497.85l-14.89,42.72c-.45,1.3-1.41,1.49-2.55.65a15.28,15.28,0,0,1-3.75-5.27,46.31,46.31,0,0,1-2.95-7.57c-.65-2.26-.92-4-.62-4.88l10.66-30.57A7.47,7.47,0,0,1,556,497.85Z"/><path d="M569.08,460.32l-3.84,11a7.47,7.47,0,1,1-14.11-4.92l3.84-11a7.49,7.49,0,0,1,9.51-4.6h0A7.49,7.49,0,0,1,569.08,460.32Z"/><path d="M574.73,534.89,555,591.39l-4.92,14.13-2.46,7.06c-.41,1.26-.82,2.15-1.23,3.18l-1.23,3-9.87,24-19.73,48-2.47,6-.62,1.5c0,.36-.43.2-.69.24h-1.75l-.31-.75-.61-1.5-4.9-12-9.81-24a24.59,24.59,0,0,1-1.38-7.64,40.33,40.33,0,0,1,.59-9.12,46.86,46.86,0,0,1,2.06-10.18c.75-2,1.5-2.39,2.09-.67l7.82,22.62,3.91,11.31L510,668l.25.71h1.5c.22,0,.58.12.59-.23l.49-1.41,2-5.65,15.76-45.21,31.51-90.41a5,5,0,0,1,3.46-3.25,7,7,0,0,1,5.32.75,8.71,8.71,0,0,1,3.88,4.9A10.59,10.59,0,0,1,574.73,534.89Z"/><path d="M585.19,595.67,572.7,631.51l-6.25,17.92-3.12,9-1.56,4.48-.2.56a1.73,1.73,0,0,1-.2.29l-.39.52-.79,1L535,698.63c-1.06,1.4-2.2,1.59-3.15.82s-1.7-2.51-2.08-5.08a32,32,0,0,1,0-8.31,20.57,20.57,0,0,1,1.9-6.94l21.52-38.44.67-1.2.34-.6c.06-.11.11-.18.17-.32l.17-.48,1.34-3.84,2.68-7.68L564,611.2l10.71-30.72c.9-2.58,2.32-4.1,3.92-4.57s3.37.11,4.9,2a15.08,15.08,0,0,1,2.81,8A23.85,23.85,0,0,1,585.19,595.67Z"/><path d="M630.62,465.32,603.55,543a12.35,12.35,0,0,1-4.58,6.46,4.68,4.68,0,0,1-5.55-.1,10.19,10.19,0,0,1-3.46-6.09,14.85,14.85,0,0,1,.44-7.93l26.12-74.94a7.49,7.49,0,0,1,9.51-4.6h0A7.49,7.49,0,0,1,630.62,465.32Z"/><path d="M626.31,568.48,598.1,649.41,584,689.88l-7.05,20.23-.88,2.53c-.07.2-.15.45-.22.6l-.22.16-.44.32L573.39,715l-3.56,2.54-56.94,40.64c-.1.05-.14.14-.28.15l-.5,0q-.5,0-1-.11t-1-.18l-.46-.12c-.13-.06-.16-.19-.25-.28a13.87,13.87,0,0,1-1.54-2.77,16.17,16.17,0,0,1-1.27-6.53c.07-2.13.64-3.6,1.48-4.22a1.65,1.65,0,0,1,1.44-.27c.08,0,.11.06.23,0l.44-.12q.44-.11.9-.18t.93-.11l.48,0c.13,0,.17-.14.25-.21l50.56-49.6,3.16-3.1L568.1,689l.39-.39.2-.19c.07-.14.13-.36.2-.54l.78-2.25,6.27-18,12.54-36,25.07-71.94a17.21,17.21,0,0,1,5-7.73c2-1.61,4.17-2.19,6-1.2s3,3.41,3.28,6.63A27,27,0,0,1,626.31,568.48Z"/><path d="M653.72,489.82l-11.15,32a7.47,7.47,0,1,1-14.11-4.92l11.15-32a7.47,7.47,0,0,1,14.11,4.92Z"/><path d="M504.63,515.24l-29.86-86.36a7.49,7.49,0,0,1,4.62-9.5h0a7.49,7.49,0,0,1,9.5,4.62l22.6,65.36s-.38,1.47-1,4l-2.21,9.76h0c-.87,3.78-1.69,7.1-2.37,9.3S504.78,515.68,504.63,515.24Z"/><path d="M511.49,489.36c-.17,2.08.26,44.81.11,44.37l-7-18.5"/><path d="M476,523.88l-29.47-85.23a7.47,7.47,0,0,1,14.12-4.88l27.18,78.61c.3.86-.09,2.31-.92,4.07a25.89,25.89,0,0,1-3.64,5.61,9.76,9.76,0,0,1-4.44,3.3A2.18,2.18,0,0,1,476,523.88Z"/><path d="M496.7,583.75l-14.06-40.66a11,11,0,0,1,.32-5.79,26.88,26.88,0,0,1,3.13-7.08,20.17,20.17,0,0,1,3.93-4.78c1.12-.91,1.94-1.11,2.23-.25l9.37,27.11c.3.86.3,3.43.1,7s-.61,8.11-1.21,12.65a65.67,65.67,0,0,1-2,10.35C497.83,584.43,497.15,585,496.7,583.75Z"/><path d="M510.7,621.64l-14-37.89c-.45-1.3,4.63-32.32,4.93-31.46L507.4,569c.3.86,3.27,9.23,3.33,13.55S511.15,622.94,510.7,621.64Z"/><path d="M477.19,618,476,615c-.2-.51-.41-1-.61-1.53l-.61-1.77-2.44-7.07-4.89-14.14-9.78-28.28-19.27-55.74-35.2-101.8a7.49,7.49,0,0,1,4.62-9.5h0a7.49,7.49,0,0,1,9.5,4.62L484,592.87c.6,1.72.76,4.77.58,8.4a69.47,69.47,0,0,1-1.57,11.6h0c-.86,3.24-1.93,5.4-3,6.33S477.94,619.81,477.19,618Z"/><path d="M448.73,627.88,404,498.37a7.47,7.47,0,0,1,14.12-4.88L457.7,608.1a27.24,27.24,0,0,1,1,9.72,34.13,34.13,0,0,1-2,10.37c-1.16,2.94-2.61,4.44-4.07,4.38S449.78,630.91,448.73,627.88Z"/><path d="M505.55,722.72,467,671.39c-1.06-1.4-1.65-4-1.72-7.16a35.68,35.68,0,0,1,1.33-10.16h0c.95-3.36,2.2-5.78,3.42-6.92s2.4-1,3.3.61l32.92,59.15a27,27,0,0,1,2.27,6.4,30.55,30.55,0,0,1,.93,7c0,2.07-.45,3.34-1.16,3.77S506.61,724.12,505.55,722.72Z"/><path d="M450.78,716.09l-3.55-2.55-.44-.32a1.09,1.09,0,0,1-.22-.18l-.22-.63-.88-2.53-1.75-5.06-7-20.25-14-40.5-28-81-33.15-95.88a7.47,7.47,0,0,1,14.12-4.88l32,92.58,24.89,72,12.45,36,6.22,18,1.56,4.5.78,2.25.19.56a1.61,1.61,0,0,0,.2.21l.39.39,3.15,3.11c1.21,1.19,1.93,3.63,2.17,6.53a29.09,29.09,0,0,1-.87,9.51,16.3,16.3,0,0,1-3.61,7.19C453.76,716.61,452.15,717.07,450.78,716.09Z"/><path d="M493.79,747l-22.46-16.12c-1.36-1-2.35-3.05-2.79-5.67a23,23,0,0,1,.33-8.76h0a13.18,13.18,0,0,1,3.07-6.44c1.25-1.19,2.6-1.29,3.81-.1l19.93,19.65a13.4,13.4,0,0,1,2.88,5.54,20.35,20.35,0,0,1,.84,7.12h0c-.18,2.29-.88,3.94-1.9,4.8A2.85,2.85,0,0,1,493.79,747Z"/><path d="M444.17,340.37,407.72,235H261.14A24.7,24.7,0,0,1,251,232.76c-2.93-1.35-5.22-3.22-6-5.28s.08-3.92,2.27-5.28S252.89,220,257,220H418.36l39.93,115.48a7.49,7.49,0,0,1-4.62,9.5h0A7.49,7.49,0,0,1,444.17,340.37Z"/><path d="M459.6,385l-6.05-17.51a7.49,7.49,0,0,1,4.62-9.5h0a7.49,7.49,0,0,1,9.5,4.62l6.05,17.51A7.47,7.47,0,0,1,459.6,385Z"/><path d="M389,272.23l-2.56-7.4h-117a15.83,15.83,0,0,1-7.82-2.19,11.48,11.48,0,0,1-5-5.28h0a4.42,4.42,0,0,1,1.29-5.28c1.57-1.35,4.23-2.19,7.43-2.19H397.08l3,8.63a22.31,22.31,0,0,1,1,9.61,13,13,0,0,1-3,7.44A4.64,4.64,0,0,1,393,277C391.33,276.42,389.89,274.81,389,272.23Z"/><path d="M424.62,375.27l-22.35-64.63a14.59,14.59,0,0,1-.4-7.88,9.86,9.86,0,0,1,3.52-6h0a4.77,4.77,0,0,1,5.59,0,12.58,12.58,0,0,1,4.58,6.52l23.19,67.06a7.47,7.47,0,0,1-14.12,4.88Z"/><path d="M437.61,412.83l-3.81-11a7.47,7.47,0,0,1,14.12-4.88l3.81,11a7.47,7.47,0,1,1-14.12,4.88Z"/><path d="M387.69,359.9l-22.54-65.19H236.55a9.31,9.31,0,0,1-2.37-.36c-1,1.69-3.8,1.11-7.11-1.91A25.57,25.57,0,0,1,220,280.13a5.62,5.62,0,0,1,2.16-.36H375.79l26,75.25a7.49,7.49,0,0,1-4.62,9.5h0A7.49,7.49,0,0,1,387.69,359.9Z"/><path d="M350.45,343.62l-6.58-19H318.17a7.49,7.49,0,0,1-7.47-7.47h0a7.49,7.49,0,0,1,7.47-7.47h36.33l9.87,28.55a3.4,3.4,0,0,1,.18,1,3.62,3.62,0,0,1,0,.51l0,.26,0,.36a7.47,7.47,0,0,1-13,4.5l-.23-.27-.16-.11a2.12,2.12,0,0,1-.28-.24A1.56,1.56,0,0,1,350.45,343.62Z"/><path d="M386.2,447,361.7,376.16a7.47,7.47,0,0,1,14.12-4.88l24.51,70.88A7.47,7.47,0,1,1,386.2,447Z"/><path d="M331.7,380.84l-9.12-26.37H294.3s-.26-.84-.81-2.19L291.31,347h0a29.06,29.06,0,0,1-1.7-5.28c-.25-1.35-.1-2.19.37-2.19h43.25L345.82,376a7.49,7.49,0,0,1-4.62,9.5h0A7.49,7.49,0,0,1,331.7,380.84Z"/><path d="M352.89,442.12l-11.07-32a7.47,7.47,0,0,1,14.12-4.88l11.07,32a7.47,7.47,0,0,1-14.12,4.88Z"/><path d="M174.78,315.08V501.43a7.49,7.49,0,0,1-7.47,7.47h0a7.49,7.49,0,0,1-7.47-7.47V310.16c0-4.11.84-7.55,2.19-9.66s3.22-2.9,5.28-2h0c2.05.91,3.92,3.3,5.28,6.3A25.5,25.5,0,0,1,174.78,315.08Z"/><path d="M178.58,235h-3.8v29.13c0,3.65-.84,6.35-2.19,7.89a3.77,3.77,0,0,1-5.28.57h0c-2.05-1.32-3.92-4.13-5.28-7.72a35.2,35.2,0,0,1-2.19-12V220h4.27a39.28,39.28,0,0,1,12.5,2.19c3.87,1.35,7.08,3.22,8.84,5.28h0c1.76,2.05,1.79,3.92.55,5.28S182.23,235,178.58,235Z"/><rect x="189.72" y="393.27" width="14.94" height="115.63" rx="7.47" ry="7.47"/><path d="M204.66,289.47v80.79a7.47,7.47,0,1,1-14.94,0V278.64c0-3.2.84-5.47,2.19-6.44s3.22-.65,5.28,1.07a24.4,24.4,0,0,1,7.47,16.21Z"/><path d="M233,264.83H217.47a23.93,23.93,0,0,1-9.09-2.19,26.24,26.24,0,0,1-8.11-5.28h0c-2-2.05-2.57-3.92-1.77-5.28s3-2.19,6.15-2.19h18.13a23.18,23.18,0,0,1,9.53,2.19,14.16,14.16,0,0,1,6.36,5.28h0c1.17,2.05,1,3.92,0,5.28S235.74,264.83,233,264.83Z"/><path d="M234.54,334.78v213a7.47,7.47,0,1,1-14.94,0V329.85a5.75,5.75,0,0,1,2.19-5c1.35-.91,3.22-1,5.28,0a14,14,0,0,1,5.28,4.35A9.68,9.68,0,0,1,234.54,334.78Z"/><path d="M264.42,361.3v97.61a7.47,7.47,0,0,1-14.94,0V361.3a7.45,7.45,0,0,1,2.19-5.28,6.94,6.94,0,0,1,2.38-1.58,11.38,11.38,0,0,1,2.9-.33,14.32,14.32,0,0,1,2.9.33,6.83,6.83,0,0,1,2.38,1.58A7.45,7.45,0,0,1,264.42,361.3Z"/><path d="M280.77,324.59H264.42v17c0,.91-.84,1.4-2.19,1.57a13,13,0,0,1-5.28-.64,13.3,13.3,0,0,1-5.28-3.08,6.51,6.51,0,0,1-2.19-4.29V309.65H274a6.66,6.66,0,0,1,4.34,2.19,13.67,13.67,0,0,1,3.19,5.28h0a13.06,13.06,0,0,1,.76,5.28C282.15,323.75,281.68,324.59,280.77,324.59Z"/><path d="M294.3,354.47V502.23a7.47,7.47,0,1,1-14.94,0v-153c0-.46.84-.56,2.19-.23a30.79,30.79,0,0,1,5.28,2l5.28,2.51C293.46,354.16,294.3,354.47,294.3,354.47Z"/><path d="M294.3,354.47s-.84-.67-2.19-1.61l-5.28-3.63h0a51.48,51.48,0,0,1-5.28-4.12c-1.35-1.25-2.19-2.32-2.19-2.78v-2.8h4.72c.46,0,1.43.84,2.5,2.19A42.9,42.9,0,0,1,290,347h0l2.95,5.28C293.74,353.63,294.3,354.47,294.3,354.47Z"/><path d="M849.21,411.57V235H769.58a16.51,16.51,0,0,1-8.82-2.19c-2.1-1.35-3.25-3.22-2.8-5.28s2.48-3.92,5.49-5.28A27.92,27.92,0,0,1,774.57,220h89.58V411.57a7.47,7.47,0,0,1-14.94,0Z"/><path d="M849.21,458.78V440.26a7.47,7.47,0,0,1,14.94,0v18.53a7.47,7.47,0,0,1-14.94,0Z"/><path d="M819.33,339.37V264.83H759.61a9.56,9.56,0,0,1-6.47-2.19,5.4,5.4,0,0,1-1.82-5.28h0c.45-2.05,2.1-3.92,4.52-5.28a18.32,18.32,0,0,1,8.77-2.19h69.67v87a16.28,16.28,0,0,1-2.19,8.4c-1.35,2.19-3.22,3.53-5.28,3.64a6.35,6.35,0,0,1-5.28-2.69A11,11,0,0,1,819.33,339.37Z"/><path d="M819.33,438.16V373.62a7.47,7.47,0,0,1,14.94,0v64.54a7.47,7.47,0,1,1-14.94,0Z"/><path d="M819.33,477.9V466.25a7.47,7.47,0,0,1,14.94,0V477.9a7.47,7.47,0,0,1-14.94,0Z"/><path d="M789.45,411.57V294.71H705.82a7.3,7.3,0,0,1-5.25-2.19,8.36,8.36,0,0,1-2.22-5.28h0a6.73,6.73,0,0,1,2.17-5.28,7.59,7.59,0,0,1,5.3-2.19h98.57v131.8a7.47,7.47,0,0,1-14.94,0Z"/><path d="M759.57,382.59v-58h-1c-.91,0-.95-.84-.4-2.19a21.39,21.39,0,0,1,3.46-5.28h0a28.7,28.7,0,0,1,5.9-5.28,11.49,11.49,0,0,1,5.47-2.19h1.51v72.94a7.47,7.47,0,0,1-14.94,0Z"/><path d="M759.57,493.44v-75a7.47,7.47,0,0,1,14.94,0v75a7.47,7.47,0,0,1-14.94,0Z"/><path d="M729.69,413.06V354.47s.25-.84.53-2.19l1-5.28h0a28.46,28.46,0,0,1,1.53-5.28c.58-1.35,1.25-2.19,1.71-2.19h10.13v73.53a7.47,7.47,0,0,1-14.94,0Z"/><path d="M729.69,477.9V444a7.47,7.47,0,0,1,14.94,0V477.9a7.47,7.47,0,0,1-14.94,0Z"/><path d="M849.21,674.34V505.22a7.47,7.47,0,0,1,14.94,0V674.34a7.47,7.47,0,0,1-14.94,0Z"/><path d="M849.21,827.79V703a7.47,7.47,0,0,1,14.94,0V827.79a7.47,7.47,0,0,1-14.94,0Z"/><path d="M819.33,605.92V505.22a7.47,7.47,0,0,1,14.94,0V605.92a7.47,7.47,0,1,1-14.94,0Z"/><path d="M819.33,700.94V636.4a7.47,7.47,0,0,1,14.94,0v64.54a7.47,7.47,0,1,1-14.94,0Z"/><path d="M819.33,776.24V729a7.47,7.47,0,0,1,14.94,0v47.21a7.47,7.47,0,0,1-14.94,0Z"/><path d="M789.45,674.34V458.91a7.47,7.47,0,0,1,14.94,0V674.34a7.47,7.47,0,0,1-14.94,0Z"/><path d="M759.57,645.36V547.75a7.47,7.47,0,1,1,14.94,0v97.61a7.47,7.47,0,0,1-14.94,0Z"/><path d="M759.57,756.21v-75a7.47,7.47,0,1,1,14.94,0v75a7.47,7.47,0,1,1-14.94,0Z"/><path d="M729.69,675.84V504.43a7.47,7.47,0,0,1,14.94,0V675.84a7.47,7.47,0,1,1-14.94,0Z"/><path d="M729.69,791.66V706.81a7.47,7.47,0,1,1,14.94,0v84.85a7.47,7.47,0,1,1-14.94,0Z"/><path d="M789.45,732.85V699a7.47,7.47,0,0,1,14.94,0v33.86a7.47,7.47,0,1,1-14.94,0Z"/><path d="M542.35,446.27l-6.1,17.49a7.47,7.47,0,1,1-14.11-4.92l6.1-17.49a7.47,7.47,0,1,1,14.11,4.92Z"/></g></svg>