<svg id="Logo" xmlns="http://www.w3.org/2000/svg" viewBox="0 0 1023.99 1023.99"><title>3-layer</title><g id="_3-layer_expansion" data-name="3-layer expansion"><path d="M197.43,660.84V762.75c0,4.16-4.45,7.56-9.88,7.56s-9.88-3.4-9.88-7.56V660.84c0-4.16,4.45-7.56,9.88-7.56S197.43,656.68,197.43,660.84Z"/><path d="M197.43,545.38v79.54c0,5.06-4.45,9.21-9.88,9.21s-9.88-4.14-9.88-9.21V545.38c0-5.06,4.45-9.21,9.88-9.21S197.43,540.32,197.43,545.38Z"/><path d="M197.43,465v45.78c0,5.06-4.45,9.21-9.88,9.21h0c-5.43,0-9.88-4.14-9.88-9.21V465c0-5.06,4.45-9.21,9.88-9.21h0C193,455.79,197.43,459.93,197.43,465Z"/><path d="M236.95,577.11v224.3c0,4.49-4.45,8.16-9.88,8.16h0c-5.43,0-9.88-3.67-9.88-8.16V577.11c0-4.49,4.45-8.16,9.88-8.16h0C232.5,569,236.95,572.62,236.95,577.11Z"/><path d="M276.46,631.31v96c0,4-4.45,7.35-9.88,7.35h0c-5.43,0-9.88-3.31-9.88-7.35v-96c0-4,4.45-7.35,9.88-7.35h0C272,624,276.46,627.26,276.46,631.31Z"/><path d="M276.46,433.37v157.3c0,5.06-4.45,9.21-9.88,9.21s-9.88-4.14-9.88-9.21V433.37c0-5.06,4.45-9.21,9.88-9.21S276.46,428.3,276.46,433.37Z"/><path d="M236.92,513.18V536c0,5.06-4.45,9.21-9.88,9.21s-9.88-4.14-9.88-9.21V513.18c0-5.06,4.45-9.21,9.88-9.21S236.92,508.11,236.92,513.18Z"/><path d="M197.43,272.27V422.41c0,5.06-4.45,9.21-9.88,9.21h0c-5.43,0-9.88-4.14-9.88-9.21V254.89c0-4.55.9-7.9,2.37-9.51,5.74,1.82,10.59,4.51,13.38,7.5s3.1,5.69,1.63,7.5A36.19,36.19,0,0,1,197.43,272.27Z"/><path d="M340,262.77H248a27.35,27.35,0,0,1-11.82-2.9c-3.64-1.79-6.8-4.26-8.3-7h0a5,5,0,0,1,1.43-7c2.35-1.79,6.5-2.9,11.57-2.9H341.15c5.07,0,9.56,1.11,12.44,2.9s4.21,4.26,3.53,7-3.1,5.19-6.2,7A22.12,22.12,0,0,1,340,262.77Z"/><path d="M414.17,328.2l-21.39-61.86a25.23,25.23,0,0,1-1-3.91c-2.75-.57-4.7-1.81-5.72-3.49a5.74,5.74,0,0,1,.21-6.05h0c1.3-2.28,3.84-4.38,7.21-6.05a38.54,38.54,0,0,1,11.89-3.49,27.81,27.81,0,0,1,1.78,4.13l25.68,74.27c1.65,4.79-1.19,10.15-6.33,11.93h0C421.38,335.45,415.82,333,414.17,328.2Z"/><path d="M305.43,302.28H236.95V467c0,5.06-4.45,9.21-9.88,9.21h0c-5.43,0-9.88-4.14-9.88-9.21V282.52h88.24c5.06,0,9.21,4.45,9.21,9.88S310.49,302.28,305.43,302.28Z"/><path d="M276.46,341.79v47.5c0,5.06-4.45,9.21-9.88,9.21s-9.88-4.14-9.88-9.21V322H266c1,0,2.48,1.11,3.75,2.9a27.08,27.08,0,0,1,3.3,7h0c.91,2.72,1.6,5.19,2.22,7,.3.9.58,1.62.79,2.12S276.46,341.79,276.46,341.79Z"/><path d="M349.82,383.91l-14.56-42.12H292.92c-5.06,0-9.21-4.45-9.21-9.88s4.14-9.88,9.21-9.88h56.41l19.16,55.42c1.65,4.79-1.19,10.15-6.33,11.93S351.47,388.7,349.82,383.91Z"/><path d="M363.38,302.25H345.11a5.87,5.87,0,0,1-4.86-2.9,11.38,11.38,0,0,1-1.88-7,9.78,9.78,0,0,1,3.53-7,12.8,12.8,0,0,1,8.14-2.9h27.44a19.16,19.16,0,0,1,.34,9.9,18.3,18.3,0,0,1-4.38,8.64,10.71,10.71,0,0,1-6.14,3.56,3.33,3.33,0,0,1-3.9-2.34Z"/><path d="M469.22,487.35,428.67,370.07c-1.65-4.79,1.19-10.15,6.33-11.93h0c5.13-1.78,10.69.69,12.34,5.47l40.55,117.28c1.65,4.79-1.19,10.15-6.33,11.93S470.87,492.13,469.22,487.35Z"/><path d="M498.62,572.39l-17.13-49.55c-1.65-4.79,1.19-10.15,6.33-11.93s10.69.69,12.34,5.47l11.22,32.46s-.18.33-.48,1-.74,1.61-1.26,2.84l-4,9.69a52.91,52.91,0,0,1-4.38,8.67C500,572.86,499,573.36,498.62,572.39Z"/><path d="M509.14,602.8l-10.52-30.41c-.33-1,12.65-23,12.77-23.52v0c0,.77,4,44.63,3.94,48.73C515.34,597.62,509.47,603.77,509.14,602.8Z"/><path d="M460.24,582.31l-83.5-241.49c-1.65-4.79,1.19-10.15,6.33-11.93h0c5.13-1.78,10.69.69,12.34,5.47l81.87,236.79c.66,1.9.32,4.32-.68,6.92a20.38,20.38,0,0,1-4.84,7.36h0c-2.18,2-4.51,2.83-6.6,2.25S461.24,585.19,460.24,582.31Z"/><path d="M404.11,540.88,364.8,427.19c-1.65-4.79,1.19-10.15,6.33-11.93h0c5.13-1.78,10.69.69,12.34,5.47l39.31,113.69c1.65,4.79-1.19,10.15-6.33,11.93S405.77,545.67,404.11,540.88Z"/><path d="M523.39,738l-6.56,4.69L513.55,745l-.82.59c0,.07-.22,0-.34,0h-2.46c-.13,0-.31,0-.34,0l-.82-.59-13.09-9.42-26.19-18.85-3.27-2.36-1.64-1.18-.82-.59-.2-.15-.1-.07s0,0-.05-.05l-.05-.15-.4-1.16-6.42-18.58-12.85-37.16L418,581c-1.65-4.79,1.19-10.15,6.33-11.93s10.69.69,12.34,5.47L457.21,634l10.28,29.73,5.14,14.86.32.93c.05.2.11.19.16.28l.16.2.65.82,1.3,1.64,2.61,3.27,20.85,26.17L509.12,725l.65.82c0,.1.19.06.3.07h2.21c.11,0,.28,0,.3-.07l.65-.82,2.61-3.27,5.23-6.53c1.34-1.69,2.71-1.91,3.93-.8s2.25,3.55,2.74,6.92a25.92,25.92,0,0,1-.5,10C526.47,734.35,525.08,736.75,523.39,738Z"/><path d="M485.75,653.71l-2.25-4.86-.56-1.22-.28-.61c-.09-.2-.19-.52-.28-.77L481.26,643l-4.47-12.94a25.87,25.87,0,0,1-.73-11,32.35,32.35,0,0,1,3.49-11.25h0c1.76-3.24,3.67-5.25,5.26-6.14s2.86-.61,3.52,1.3l6,17.25c.66,1.9.79,5.7.57,10.52a123.92,123.92,0,0,1-1.84,16c-1,4.07-2.26,6.79-3.58,8S486.75,655.86,485.75,653.71Z"/><path d="M534.1,543.79l-18.76,53.83c-.34,1-.85-.95-1.31-5.06s-.89-10.38-1.27-17.56h0l-.91-18.59-.32-5.54-.14-2,4-11.6c1.67-4.78,7.23-7.23,12.36-5.44S535.77,539,534.1,543.79Z"/><path d="M572.65,433.21l-26.18,75.11c-1.67,4.78-7.23,7.23-12.36,5.44h0c-5.13-1.79-8-7.16-6.3-11.94L554,426.71c1.67-4.78,7.23-7.23,12.36-5.44h0C571.48,423.06,574.31,428.43,572.65,433.21Z"/><path d="M599.11,357.3,584,400.53c-1.67,4.78-7.23,7.23-12.36,5.44h0c-5.13-1.79-8-7.16-6.3-11.94l15.07-43.23c1.67-4.78,7.23-7.23,12.36-5.44S600.77,352.52,599.11,357.3Z"/><path d="M599.17,477.16,555.56,602.29l-12.49,35.84-3.12,8.94-3.14,6.73-6.27,13.46L518,694.17l-3.14,6.73-1.57,3.36-.78,1.68c0,.05,0,.18-.13.17h-1.85c-.17,0-.36,0-.52,0l-.2-.42-.39-.84-.78-1.68-1.56-3.37L504,693.06a29,29,0,0,1-2.1-9,48.16,48.16,0,0,1,.22-11,106.41,106.41,0,0,1,2.08-15.34c.78-3.23,1.54-4.43,2.2-2.53l2.07,6,1,3,.52,1.49.26.75.13.37c.12,0,.26,0,.39,0h1.38c.07,0,.06-.11.09-.15l.52-1.49,1-3,2.08-6,8.33-23.9,16.66-47.79,39.67-113.81c1.67-4.78,7.23-7.23,12.36-5.44S600.84,472.38,599.17,477.16Z"/><path d="M618.38,542.11l-25.91,74.35-19.79,56.78-9.9,28.39-2.47,7.1-1.24,3.55a1.27,1.27,0,0,1-.08.2l-.08.06-.16.11-.31.22-.63.45-5,3.59c-1.69,1.2-3.68.58-5.42-1.27s-3.27-5-4.23-9h0a41.39,41.39,0,0,1-1-12.06c.26-3.76,1-7,2.37-8.69l4-5,.5-.62.25-.31.12-.16.06-.08a1.47,1.47,0,0,0,.06-.16l1-2.84,2-5.68,7.92-22.71,15.83-45.43,23.47-67.32c1.67-4.78,7.23-7.23,12.36-5.44h0C617.21,532,620,537.33,618.38,542.11Z"/><path d="M684.14,353.44,632.36,502c-1.67,4.78-7.23,7.23-12.36,5.44s-8-7.16-6.3-11.94l51.77-148.54c1.67-4.78,7.23-7.23,12.36-5.44S685.8,348.66,684.14,353.44Z"/><path d="M620.54,415.8,613,437.35c-1.67,4.78-7.23,7.23-12.36,5.44s-8-7.16-6.3-11.94l7.51-21.56c1.67-4.78,7.23-7.23,12.36-5.44S622.2,411,620.54,415.8Z"/><path d="M742.43,262.72H632l-18.32,52.55a9.12,9.12,0,0,1-.42,1.06,8.55,8.55,0,0,1-.44.81,8.67,8.67,0,0,1-1.11,1.44,9.27,9.27,0,0,1-3,2.07A10.35,10.35,0,0,1,595.61,316a9.27,9.27,0,0,1-1-3.46,8.68,8.68,0,0,1,0-1.82,8.54,8.54,0,0,1,.16-.91,9.73,9.73,0,0,1,.37-1.21L618,243H742.43a8.59,8.59,0,0,1,3.57.78,8.92,8.92,0,0,1,.8.42l.39.24.19.13.09.06.18.07a18.53,18.53,0,0,1,2.65,1.21c3.2,1.79,4.9,4.26,4.66,7s-2.26,5.19-5.07,7a17.44,17.44,0,0,1-2.26,1.21.87.87,0,0,0-.24.13l-.19.13-.39.24a8.92,8.92,0,0,1-.8.42A8.59,8.59,0,0,1,742.43,262.72Z"/><path d="M826.55,355V262.72h-27c-4,0-7-1.11-8.88-2.9a5.82,5.82,0,0,1-1.2-7c1.27-2.72,4.35-5.19,8.54-7A38.2,38.2,0,0,1,812.5,243h33.81V355c0,5.06-4.45,9.21-9.88,9.21S826.55,360.08,826.55,355Z"/><path d="M826.55,435.4V389.63c0-5.06,4.45-9.21,9.88-9.21s9.88,4.14,9.88,9.21V435.4c0,5.06-4.45,9.21-9.88,9.21S826.55,440.47,826.55,435.4Z"/><path d="M787,326.14V302.23H660.12l-23.83,68.36c-1.67,4.78-7.23,7.23-12.36,5.44h0c-5.13-1.79-8-7.16-6.3-11.94l28.45-81.61H806.8v35.85a14.61,14.61,0,0,1-2.9,8.57,11.71,11.71,0,0,1-7,4.55,10.47,10.47,0,0,1-7-.86A4.92,4.92,0,0,1,787,326.14Z"/><path d="M747.51,341.74H688.19A30.77,30.77,0,0,0,686,339.3c-1.4-1.43-3.38-3.23-5.51-5.38a32.64,32.64,0,0,1-5.16-6.4c-1.19-2-1.7-3.94-1.36-4.91l.22-.63h83.06c1,0,7-.51,8.79,4.69C770.23,336,747.51,341.74,747.51,341.74Z"/><path d="M747.53,467V341.76s3.54-17.4,12.1-18c6.06-.36,6.9,2,7.66,5.15V467c0,5.06-4.45,9.21-9.88,9.21S747.53,472.09,747.53,467Z"/><path d="M787.06,387.22V364.39c0-5.06,4.45-9.21,9.88-9.21s9.88,4.14,9.88,9.21v22.83c0,5.06-4.45,9.21-9.88,9.21S787.06,392.28,787.06,387.22Z"/><path d="M826.55,602.08V478c0-5.06,4.45-9.21,9.88-9.21s9.88,4.14,9.88,9.21V602.08c0,5.06-4.45,9.21-9.88,9.21S826.55,607.14,826.55,602.08Z"/><path d="M826.55,719.17V639.64c0-5.06,4.45-9.21,9.88-9.21s9.88,4.14,9.88,9.21v79.54c0,5.06-4.45,9.21-9.88,9.21S826.55,724.24,826.55,719.17Z"/><path d="M826.55,802.6v-48.3a9.88,9.88,0,0,1,19.76,0v48.3a9.88,9.88,0,0,1-19.76,0Z"/><path d="M787,686.4v-253c0-5.06,4.45-9.21,9.88-9.21s9.88,4.14,9.88,9.21v253c0,5.06-4.45,9.21-9.88,9.21S787,691.46,787,686.4Z"/><path d="M747.53,631.4V511.1c0-5.06,4.45-9.21,9.88-9.21s9.88,4.14,9.88,9.21V631.4c0,5.06-4.45,9.21-9.88,9.21S747.53,636.46,747.53,631.4Z"/><path d="M747.53,776V670.84c0-3.39,4.45-6.16,9.88-6.16s9.88,2.77,9.88,6.16V776c0,3.39-4.45,6.16-9.88,6.16S747.53,779.41,747.53,776Z"/><path d="M787.06,751.38V728.55c0-5.06,4.45-9.21,9.88-9.21s9.88,4.14,9.88,9.21v22.83c0,5.06-4.45,9.21-9.88,9.21S787.06,756.44,787.06,751.38Z"/></g></svg>