<svg id="Logo" xmlns="http://www.w3.org/2000/svg" viewBox="0 0 1023.99 1023.99"><title>1-layer</title><g id="_1-layer_expansion" data-name="1-layer expansion"><path d="M580.89,601.46,556.3,672l-6.15,17.64-.38,1.1a2.42,2.42,0,0,1-.39.31l-.78.56L547,692.74,543.9,695l-12.52,9-12.52,9-3.13,2.24-1.56,1.12-.78.56-.39.28-.2.14a.3.3,0,0,1-.27.08h-2.34c-.25,0-.58,0-.65-.09L508,716.14l-3.12-2.25-25-18-6.25-4.5-.78-.56c-.06-.07-.13,0-.19-.2l-.19-.55-.38-1.1-1.53-4.41-3.05-8.83-12.21-35.31L433.7,578l-24.42-70.61c-2.37-6.86,12.53-18.3,33.11-25.42h0c20.59-7.12,39.37-7.33,41.74-.47l27.24,78.78a19.6,19.6,0,0,0,2.88,1.24c.95.34,2.12.72,3.5,1.09l1.07.28.28.07.32,0,.65,0q1.31-.06,2.73,0c7.57.1,17.4,2,27.69,5.54h0c10.28,3.58,19.14,8.25,25.13,12.87q1.12.87,2.11,1.73l.48.43.23.22.2.31q.39.62.73,1.26a21.58,21.58,0,0,1,2,5.33A19.74,19.74,0,0,1,580.89,601.46Z"/><path d="M611,514.44l-10.78,30.91c-2.39,6.86-21.17,6.6-41.74-.57h0c-20.57-7.17-35.44-18.64-33.05-25.5l10.78-30.91c2.39-6.86,21.17-6.6,41.74.57h0C598.5,496.11,613.38,507.58,611,514.44Z"/><path d="M301.41,312.87h-35v64c0,7.28-17.87,13.24-39.72,13.24h0c-21.84,0-39.72-6-39.72-13.24V233.44H301.41c7.28,0,13.24,17.87,13.24,39.72h0C314.65,295,308.69,312.87,301.41,312.87Z"/><path d="M365.39,380.49l-23.14-66.93a20.75,20.75,0,0,0,.64-3.12,61.26,61.26,0,0,0,.5-8.51c0-3.59-.21-7.86-.51-12.59s-.64-9.93-.64-15.38h0a70.75,70.75,0,0,1,1.44-15.38A37,37,0,0,1,348.84,246a27.3,27.3,0,0,1,8.89-8.51,21.87,21.87,0,0,1,10.89-3.12h30l41.58,120.25c2.37,6.86-12.53,18.3-33.11,25.42S367.77,387.35,365.39,380.49Z"/><path d="M388.34,446.13l-6.73-19.46c-2.37-6.86,12.53-18.3,33.11-25.42h0c20.59-7.12,39.37-7.33,41.74-.47l6.73,19.46c2.37,6.86-12.53,18.3-33.11,25.42h0C409.5,452.78,390.71,453,388.34,446.13Z"/><path d="M266.38,426.78V808.6c0,7.28-17.87,13.24-39.72,13.24h0c-21.84,0-39.72-6-39.72-13.24V426.78c0-7.28,17.87-13.24,39.72-13.24h0C248.51,413.54,266.38,419.5,266.38,426.78Z"/><path d="M757.6,612.39v-173c0-7.28,17.87-13.24,39.72-13.24s39.72,6,39.72,13.24v173c0,7.28-17.87,13.24-39.72,13.24S757.6,619.68,757.6,612.39Z"/><path d="M757.6,808.23V675.31c0-7.28,17.87-13.24,39.72-13.24S837,668,837,675.31V808.23c0,7.28-17.87,13.24-39.72,13.24S757.6,815.52,757.6,808.23Z"/><path d="M757.53,312.87H681.27l-50,143.42c-2.4,6.88-21.23,6.62-41.86-.57h0c-20.63-7.19-35.54-18.7-33.15-25.57l68.57-196.71H795.95c3.65,0,6.56,1.12,8.36,3.13s2.5,4.93,2,8.53S804,253,801.13,257.74A131,131,0,0,1,790,273.16h0c-4.47,5.46-9.08,10.67-13.24,15.42s-7.89,9-10.82,12.63-5.11,6.52-6.47,8.53A30.8,30.8,0,0,0,757.53,312.87Z"/><path d="M757.6,367.45V312.76a21.29,21.29,0,0,0,3.13-.83,76.66,76.66,0,0,0,8.53-3.49c3.6-1.68,7.88-3.9,12.63-6.41s10-5.29,15.42-7.85h0a85,85,0,0,1,15.42-5.76,29.48,29.48,0,0,1,12.63-.72,14.19,14.19,0,0,1,8.53,4.93A15,15,0,0,1,837,302.1v65.35c0,7.28-17.87,13.24-39.72,13.24S757.6,374.73,757.6,367.45Z"/></g></svg>